<svg width="32" height="32" viewBox="0 0 32 32" fill="none" xmlns="http://www.w3.org/2000/svg">
<path d="M25 9.66667H21V8.33333C21 6.91885 20.4381 5.56229 19.4379 4.5621C18.4377 3.5619 17.0812 3 15.6667 3C14.2522 3 12.8956 3.5619 11.8954 4.5621C10.8952 5.56229 10.3333 6.91885 10.3333 8.33333V9.66667H6.33333C5.97971 9.66667 5.64057 9.80714 5.39052 10.0572C5.14048 10.3072 5 10.6464 5 11L5 25.6667C5 26.7275 5.42143 27.7449 6.17157 28.4951C6.92172 29.2452 7.93913 29.6667 9 29.6667H22.3333C23.3942 29.6667 24.4116 29.2452 25.1618 28.4951C25.9119 27.7449 26.3333 26.7275 26.3333 25.6667V11C26.3333 10.6464 26.1929 10.3072 25.9428 10.0572C25.6928 9.80714 25.3536 9.66667 25 9.66667ZM13 8.33333C13 7.62609 13.281 6.94781 13.781 6.44771C14.2811 5.94762 14.9594 5.66667 15.6667 5.66667C16.3739 5.66667 17.0522 5.94762 17.5523 6.44771C18.0524 6.94781 18.3333 7.62609 18.3333 8.33333V9.66667H13V8.33333ZM23.6667 25.6667C23.6667 26.0203 23.5262 26.3594 23.2761 26.6095C23.0261 26.8595 22.687 27 22.3333 27H9C8.64638 27 8.30724 26.8595 8.05719 26.6095C7.80714 26.3594 7.66667 26.0203 7.66667 25.6667L7.66667 12.3333H10.3333V13.6667C10.3333 14.0203 10.4738 14.3594 10.7239 14.6095C10.9739 14.8595 11.313 15 11.6667 15C12.0203 15 12.3594 14.8595 12.6095 14.6095C12.8595 14.3594 13 14.0203 13 13.6667V12.3333H18.3333V13.6667C18.3333 14.0203 18.4738 14.3594 18.7239 14.6095C18.9739 14.8595 19.313 15 19.6667 15C20.0203 15 20.3594 14.8595 20.6095 14.6095C20.8595 14.3594 21 14.0203 21 13.6667V12.3333L23.6667 12.3333V25.6667Z" fill="#403C39"/>
</svg>
